<svg preserveAspectRatio="xMidYMid meet" version="1.1" xmlns="http://www.w3.org/2000/svg" style="display: block;" viewBox="0 0 2048 2048" width="512" height="512">
<path transform="translate(0,0)" fill="rgb(1,1,1)" d="M 837.905 288.933 C 839.896 288.747 838.989 288.788 841.126 288.783 L 1166.65 288.87 C 1280.01 288.885 1311.94 340.244 1311.59 448.997 C 1399.27 454.644 1499.95 447.367 1589.61 448.937 C 1635.3 449.737 1631.1 475.94 1631.01 513.425 L 1630.94 636.354 C 1631.38 704.304 1627.06 711.149 1553.5 703.219 C 1553.89 726.849 1552.33 750.431 1551.48 774.027 L 1528.9 1489.04 C 1527.06 1562.94 1537.87 1674.84 1484.88 1727.63 C 1448.88 1763.48 1407.69 1757.04 1361.07 1757.04 L 1214.25 1756.99 L 671.46 1756.94 C 551.835 1757.23 527.178 1698.18 524.764 1589.53 L 500.265 794.53 C 499.065 764.107 496.941 733.67 497.112 703.219 C 487.062 704.776 476.68 703.416 466.561 703.484 C 442.181 703.648 418.995 707.551 418.11 675.71 C 417.113 639.798 412.89 501.138 419.45 469.789 C 424.817 444.138 456.783 448.951 475.97 448.951 L 737.018 448.997 C 740.76 370.296 739.264 305.757 837.905 288.933 z M 797.684 448.997 L 1195.5 448.997 L 1250.96 448.997 C 1241.84 365.909 1253.7 349.369 1156.71 349.443 L 1079.61 349.487 C 1003.33 349.52 926.749 347.95 850.5 349.49 C 790.266 354.875 800.48 407.724 797.684 448.997 z"/>
<path transform="translate(0,0)" fill="rgb(250,237,218)" d="M 557.473 703.219 L 1388.28 703.206 C 1422.5 703.206 1456.93 702.417 1491.13 703.219 C 1492.31 722.611 1493.11 757.068 1488.95 775.475 C 1493.24 815.617 1486.81 875.307 1485.95 919.701 L 1468.46 1520 C 1467.28 1552.21 1464.85 1584.78 1465.81 1616.99 C 1457.9 1706.23 1425.84 1696.75 1349.97 1696.76 L 671.108 1696.76 C 612.325 1696.77 584.564 1679.14 585.698 1616.99 C 584.334 1603.69 584.357 1589.97 583.86 1576.6 L 560.991 841.011 C 560.275 819.161 558.598 797.348 559.191 775.475 C 556.081 751.847 557.452 727.029 557.473 703.219 z"/>
<path transform="translate(0,0)" fill="rgb(193,191,192)" d="M 557.473 703.219 L 1388.28 703.206 C 1422.5 703.206 1456.93 702.417 1491.13 703.219 C 1492.31 722.611 1493.11 757.068 1488.95 775.475 C 1488.44 770.671 1488.81 765.765 1488.95 760.942 L 559.191 760.942 C 559.499 765.874 559.47 770.548 559.191 775.475 C 556.081 751.847 557.452 727.029 557.473 703.219 z"/>
<path transform="translate(0,0)" fill="rgb(193,191,192)" d="M 1465.81 1616.99 C 1457.9 1706.23 1425.84 1696.75 1349.97 1696.76 L 671.108 1696.76 C 612.325 1696.77 584.564 1679.14 585.698 1616.99 C 622.094 1652.49 641.864 1647.19 687.686 1647.1 L 1365.53 1647.12 C 1377.9 1647.12 1390.99 1647.84 1403.28 1646.41 C 1429.12 1643.4 1443.03 1620.94 1465.81 1616.99 z"/>
<path transform="translate(0,0)" fill="rgb(1,1,1)" d="M 1106.97 836.292 C 1155.21 832.009 1140.94 913.871 1140.94 944.27 L 1140.94 1515.91 C 1140.98 1547.42 1151.36 1588.45 1113.68 1598.21 C 1065.47 1597.62 1079.43 1533.34 1079.44 1499.41 L 1079.53 919.707 C 1079.37 890.774 1068.08 842.513 1106.97 836.292 z"/>
<path transform="translate(0,0)" fill="rgb(1,1,1)" d="M 930.916 836.292 C 963.611 835.061 965.117 856.257 965.057 880.679 L 964.996 1523.9 C 965.033 1551.43 974.77 1591.13 937.838 1598.21 C 891.45 1602.72 903.63 1535.76 903.668 1508.45 L 903.729 1030.64 C 903.752 978.035 902.162 924.909 903.721 872.351 C 904.298 852.898 910.14 839.878 930.916 836.292 z"/>
<path transform="translate(0,0)" fill="rgb(1,1,1)" d="M 1278.01 836.292 C 1298.46 835.261 1311.42 848.594 1311.81 869.445 C 1312.48 906.11 1311.59 942.994 1311.58 979.692 L 1311.61 1527.26 C 1311.69 1554.74 1318.87 1584.14 1288.78 1598.21 C 1237.13 1601.88 1250.9 1534.33 1250.92 1501.8 L 1250.94 916.82 C 1250.93 889.418 1240.4 841.774 1278.01 836.292 z"/>
<path transform="translate(0,0)" fill="rgb(1,1,1)" d="M 764.934 836.292 C 810.234 828.491 797.704 904.788 797.709 929.694 L 797.709 1393.8 C 797.71 1449.32 798.864 1505.12 797.523 1560.62 C 797.113 1577.61 789.187 1589.47 772.262 1593.93 C 731.863 1597.65 736.872 1555.02 737.003 1528.41 L 736.996 909.311 C 736.933 883.116 727.206 838.39 764.934 836.292 z"/>
<path transform="translate(0,0)" fill="rgb(249,204,115)" d="M 478.878 509.72 L 1569.8 509.72 L 1569.8 643.495 L 478.878 643.495 L 478.878 509.72 z"/>
</svg>