<svg preserveAspectRatio="xMidYMid meet" version="1.1" xmlns="http://www.w3.org/2000/svg" style="display: block;" viewBox="0 0 2048 2048" width="512" height="512">
<path transform="translate(0,0)" fill="rgb(0,0,0)" d="M 520.843 285.001 C 528.402 284.159 536.773 284.946 544.422 284.968 L 1085.3 284.988 C 1108.86 284.989 1259.58 280.55 1270.73 288.473 C 1285.39 298.883 1298.51 315.075 1311.17 327.857 L 1378.23 394.775 C 1452.6 469.345 1531.93 544.156 1603.43 621.192 C 1618.55 637.487 1613.01 661.832 1613.03 682.554 L 1613 1600.5 C 1613.01 1666.86 1622.24 1748.09 1530.71 1758.94 L 549.015 1759.03 C 497.024 1759.15 447.407 1749.4 438.024 1685.35 C 435.346 1667.07 436.913 1647.02 436.969 1628.5 L 436.97 465.462 C 436.945 391.89 421.235 299.46 520.843 285.001 z M 1530.71 1702.81 C 1560.84 1693.06 1554.77 1665.97 1554.55 1641.19 L 1554.57 669.485 L 1379.94 669.447 C 1357.69 669.456 1318.56 672.099 1298.34 668.083 C 1219.11 652.348 1230.8 578.927 1230.8 519.504 L 1230.86 341.938 L 520.843 341.938 C 478.696 355.894 493.061 432.91 493.03 470.911 L 492.968 1615.79 C 492.896 1655.03 478.485 1701.84 528.263 1702.84 C 564.374 1703.57 600.653 1702.78 636.783 1702.77 L 1530.71 1702.81 z M 1286.08 595.625 C 1308.63 625.465 1339.83 614.084 1375.63 614.066 C 1422.58 614.043 1469.58 614.56 1516.53 614.058 C 1505.78 600.875 1492.34 589.205 1480.32 577.126 L 1321.22 418.364 C 1309.43 406.552 1298.14 394.274 1286.08 382.727 L 1286.11 523.781 C 1286.12 547.681 1286.8 571.75 1286.08 595.625 z"/>
<path transform="translate(0,0)" fill="rgb(0,0,0)" d="M 891.968 646.6 C 955.189 639.442 986.206 692.417 1070.86 667.477 C 1098 659.482 1115.98 646.426 1146 646.508 C 1206.9 646.674 1262.26 687.96 1276.85 747.47 C 1282.81 771.761 1280.03 807.639 1280.03 833.261 L 1279.99 962.694 L 1350.43 962.619 C 1374.38 962.609 1413.18 956.465 1413.46 991.791 C 1413.68 1018.9 1396.53 1054.94 1377.58 1073.94 C 1336.4 1115.25 1297.11 1118.61 1242.18 1118.58 L 1176.75 1118.53 L 816.018 1118.62 C 795.259 1118.72 773.986 1119.97 753.507 1116.03 C 695.429 1104.86 636.231 1054.02 633.079 991.94 C 631.295 956.798 668.769 962.566 692.793 962.607 L 770.518 962.694 C 771.96 908.997 763.386 792.485 774.107 745.743 C 786.667 690.978 835.921 649.956 891.968 646.6 z M 826.997 835.865 L 1187.5 835.865 L 1224.02 835.865 L 1224.1 798.3 C 1224.1 771.223 1222.95 747.471 1202.6 727.21 C 1162.87 687.665 1134.58 704.749 1093.05 719.782 C 993.9 755.677 947.231 697.216 891.968 703.004 C 818.071 719.839 827.126 777.111 826.997 835.865 z M 826.997 1019.44 L 747.495 1019.53 C 731.998 1019.67 716.58 1021.1 701.119 1019.44 C 730.764 1064.5 772.163 1062.12 819.835 1062.08 L 1224.02 1062.02 C 1272.67 1062.13 1319.34 1064.54 1348.61 1019.44 C 1330.75 1021.46 1312.56 1019.58 1294.63 1019.49 L 826.997 1019.44 z M 854.992 891.485 C 845.668 891.465 836.317 891.287 826.997 891.485 L 826.997 962.694 L 1196.99 962.694 C 1205.95 962.642 1215.07 962.227 1224.02 962.694 C 1224.03 938.983 1224.47 915.186 1224.02 891.485 L 854.992 891.485 z"/>
<path transform="translate(0,0)" fill="rgb(0,0,0)" d="M 1224.02 1416 C 1263.61 1414.11 1371.96 1411.46 1409.61 1416.84 C 1444.17 1421.77 1436.19 1457.29 1436.23 1482.8 L 1436.76 1537.72 C 1437.13 1587.74 1381.43 1574.06 1345.69 1573.98 L 823.5 1573.99 L 696.668 1574 C 678.087 1573.99 654.428 1575.72 636.407 1573.66 C 612.461 1570.92 604.754 1538.74 621.343 1523.08 C 633.707 1511.42 686.972 1516.93 703.375 1516.94 L 1196.99 1517 C 1197.38 1481.5 1182.1 1423.41 1224.02 1416 z M 1254 1473.81 L 1254 1517 L 1286.08 1517 L 1380.98 1517 L 1380.98 1473.81 C 1370.14 1473.41 1359.44 1473.48 1348.61 1473.81 L 1254 1473.81 z"/>
<path transform="translate(0,0)" fill="rgb(0,0,0)" d="M 1403.11 1315 C 1445.16 1312.2 1448.56 1369.26 1410.27 1371.83 C 1382.84 1373.67 1354.32 1372.04 1326.75 1372.02 L 642.75 1371.99 C 605.498 1372.77 599.354 1318.28 638.241 1315.27 C 665.287 1313.18 693.77 1314.94 720.991 1314.95 L 1403.11 1315 z"/>
<path transform="translate(0,0)" fill="rgb(0,0,0)" d="M 639.362 1212.52 C 649.311 1210.8 660.523 1212.5 670.632 1212.5 L 1358.97 1212.52 C 1392.66 1212.5 1430.25 1201.04 1436.2 1241.91 C 1433.85 1257.25 1429.11 1265.1 1413.24 1269.12 C 1401.55 1269.85 1389.66 1269.25 1377.93 1269.21 L 788.776 1269.12 C 764.642 1269.12 639.385 1274.47 625.585 1265.9 C 600.437 1250.29 610.928 1216.76 639.362 1212.52 z"/>
<path transform="translate(0,0)" fill="rgb(0,0,0)" d="M 639.362 1416 L 1054.37 1416.01 C 1073.42 1415.95 1092.85 1414.97 1111.84 1416.14 C 1150.24 1418.49 1154.79 1469.71 1116.25 1473.81 L 690.108 1473.79 C 672.8 1473.78 654.431 1474.89 637.212 1473.26 C 602.834 1469.99 604.146 1421.05 639.362 1416 z"/>
</svg>