<svg preserveAspectRatio="xMidYMid meet" version="1.1" xmlns="http://www.w3.org/2000/svg" style="display: block;" viewBox="0 0 2048 2048" width="512" height="512">
<path transform="translate(0,0)" fill="rgb(30,30,30)" d="M 560.714 275.025 C 576.365 274.043 592.672 274.968 608.385 274.996 L 1185.68 274.988 C 1206.38 274.987 1247.68 269.97 1265.86 278.805 C 1276.04 283.752 1335.5 345.9 1349.35 359.742 L 1556.25 563.219 C 1614.46 619.725 1608.03 597.104 1608 676.994 L 1607.99 1585.78 C 1608.53 1679.19 1587.07 1724.63 1491.49 1751.81 C 1422.46 1752.56 1353.28 1751.82 1284.23 1751.82 L 667.6 1751.81 C 633.232 1751.83 591.033 1754.21 557.458 1750.18 C 501.476 1743.46 452.98 1695.64 443.908 1640.26 C 440.337 1618.46 441.405 1594.75 441.374 1572.67 L 441.385 474.415 C 441.365 447.879 439.593 420.313 441.611 393.928 C 446.621 328.434 497.873 284.449 560.714 275.025 z M 1475.99 1688.22 C 1554.78 1682.54 1544.22 1603.51 1544.16 1549.59 L 1544.03 688.104 C 1544.01 679.175 1543.41 669.945 1544.1 661.053 L 1416.14 661.01 C 1389.33 661.016 1359.92 663.957 1333.65 658.168 C 1218.12 632.72 1217.92 542.524 1217.97 450.747 L 1217.99 339.095 L 572.421 339.095 C 490.876 349.444 505.67 420.827 505.684 480.154 L 505.683 1572.11 C 505.68 1662.99 513.642 1688.3 607.978 1688.25 L 1475.99 1688.22 z M 1498.32 597.254 C 1483.14 579.844 1464.45 564.045 1447.78 547.965 L 1355.49 458.022 C 1337.74 440.637 1300.96 398.894 1283.12 386.386 C 1282.7 414.501 1283.12 442.663 1283.16 470.783 C 1283.27 536.463 1286.37 597.017 1370.96 597.351 L 1498.32 597.254 z"/>
<path transform="translate(0,0)" fill="rgb(9,152,237)" d="M 712.869 1018.07 L 999.796 1018.05 C 1016.55 1018.08 1034.41 1017.32 1050.93 1020.41 C 1143.68 1037.75 1130.08 1125.77 1130.07 1194.91 L 1130.05 1452.33 C 1130.01 1517.92 1118.03 1578.8 1033.75 1581.67 L 737.278 1581.73 C 613.078 1581.65 614.672 1523.66 614.649 1416.92 L 614.648 1161.21 C 614.656 1142.86 612.89 1122.49 615.649 1104.46 C 623.255 1054.75 664.401 1023.05 712.869 1018.07 z M 1033.75 1520 C 1079.72 1517.39 1068.04 1463.34 1068.04 1431.51 L 1068.04 1188.21 C 1068.04 1162.49 1069.26 1136.15 1067.13 1110.53 C 1064.04 1073.47 1021.77 1080.99 995.709 1081 L 786.348 1081.03 C 761.893 1081 737.313 1080.43 712.869 1081.04 C 661.85 1090.44 677.974 1170.6 677.961 1213.23 L 677.984 1453.61 C 678.016 1512.61 673.761 1520.31 741.76 1520.11 L 952.084 1519.99 C 979.228 1519.98 1006.63 1519.18 1033.75 1520 z"/>
<path transform="translate(0,0)" fill="rgb(9,152,237)" d="M 740.53 1306.09 C 755.902 1305.45 771.487 1306.02 786.884 1306.05 L 954.37 1306.02 C 1043.59 1305.96 1024.67 1315.82 1024.89 1397.15 C 1024.96 1421.53 1036.29 1467.91 1003.18 1473.74 L 836.903 1473.76 C 812.637 1473.78 727.347 1484.93 720.5 1458.08 C 717.16 1444.99 718.777 1343.72 719.983 1329.17 C 721.11 1315.57 726.857 1309.07 740.53 1306.09 z M 783.27 1413.04 L 962.987 1413.04 L 962.987 1368.49 C 903.107 1367.85 843.156 1368.5 783.27 1368.49 L 783.27 1413.04 z"/>
<path transform="translate(0,0)" fill="rgb(9,152,237)" d="M 868.909 1122.97 C 908.749 1120.95 942.634 1151.72 944.463 1191.57 C 946.291 1231.42 915.366 1265.15 875.509 1266.79 C 835.921 1268.42 802.461 1237.75 800.645 1198.17 C 798.828 1158.59 829.339 1124.98 868.909 1122.97 z"/>
<path transform="translate(0,0)" fill="rgb(30,30,30)" d="M 701.32 759.724 L 1287.8 759.754 C 1307.96 759.798 1328.69 758.638 1348.78 759.544 C 1390.22 761.414 1394.47 813.732 1354.7 825.003 L 771.327 824.999 C 751.565 825.01 699.686 830.886 683.488 819.589 C 655.422 800.015 670.892 763.345 701.32 759.724 z"/>
<path transform="translate(0,0)" fill="rgb(30,30,30)" d="M 695.956 906.047 C 706.117 905.451 716.564 906.019 726.766 906.026 L 1227.54 906.045 C 1253.81 906.05 1346.48 900.026 1365.88 910.878 C 1394.83 927.077 1383.8 964.024 1354.7 970.685 L 773.002 970.643 C 750.094 970.672 726.943 971.592 704.067 970.87 C 661.305 969.521 657.85 917.866 695.956 906.047 z"/>
<path transform="translate(0,0)" fill="rgb(30,30,30)" d="M 1211.85 1432.16 C 1220.91 1431.4 1230.23 1432.01 1239.32 1432.06 L 1291.41 1432.15 C 1329.6 1432.2 1368.62 1430.65 1406.66 1432.24 C 1447.35 1433.95 1449.42 1480.51 1416.5 1495.27 C 1387.33 1497.15 1355.52 1495.17 1326 1495.21 L 1257.14 1495.37 C 1241.51 1495.4 1219.58 1498.69 1204.92 1491.96 C 1178.44 1479.81 1187.07 1440.8 1211.85 1432.16 z"/>
<path transform="translate(0,0)" fill="rgb(30,30,30)" d="M 1217.99 1134.26 C 1225.75 1133.55 1234.03 1134.19 1241.84 1134.21 L 1291.61 1134.22 C 1330.24 1134.21 1369.69 1132.59 1408.21 1134.63 C 1444.02 1136.53 1451.97 1184.03 1413.19 1197.49 C 1401.03 1198.22 1388.49 1197.56 1376.29 1197.53 L 1252.47 1197.49 C 1237.07 1197.63 1216.65 1200.97 1203 1192.02 C 1176.94 1174.94 1190.37 1139.09 1217.99 1134.26 z"/>
<path transform="translate(0,0)" fill="rgb(30,30,30)" d="M 1217.99 1285 L 1348.63 1285 C 1369.14 1285.01 1406.35 1278.91 1424.27 1290.37 C 1448.36 1305.77 1441.43 1343.2 1413.19 1347.45 C 1401.56 1348.13 1389.64 1347.56 1377.98 1347.52 L 1252.75 1347.51 C 1238.34 1347.55 1215.6 1350.82 1202.67 1342.93 C 1180.47 1329.4 1184.77 1291.56 1217.99 1285 z"/>
</svg>