<svg xmlns="http://www.w3.org/2000/svg" version="1.1" style="display: block; width: 100%; height: 100%; overflow: visible;" viewBox="-40.96 -40.96 2129.92 2129.92" data-aspect-ratio="1.00" data-viewbox="0 0 2048 2048" preserveAspectRatio="xMidYMid meet">
<path transform="translate(0,0)" fill="rgb(231,240,247)" d="M 729.433 1417.78 L 549.623 1417.75 C 483.727 1417.76 377.166 1431.83 367.604 1337.07 C 365.477 1315.99 366.076 1294.36 366.073 1273.2 L 366.104 393.655 C 365.921 241.848 388.186 230.941 533.806 231.053 L 989.437 230.979 C 1003.17 230.888 1017.16 230.056 1030.84 231.032 C 1048.57 245.357 1063.75 264.499 1079.54 280.923 L 1235.8 439.162 C 1244.05 447.559 1253.18 455.827 1260.48 465.071 C 1262.97 477.182 1260.62 493.175 1260.53 505.753 L 1260.48 597.019 L 1261.5 597.141 C 1288.7 600.16 1313.37 592.971 1336.99 611.073 C 1366.88 636.296 1395.94 668.63 1423.79 696.553 L 1506.66 780.648 C 1529.07 803.025 1551.33 825.112 1573.1 848.061 C 1572.53 852.746 1573.48 857.569 1573.69 862.289 C 1576.94 935.403 1575.14 1008.81 1574.92 1081.98 C 1574.82 1115.94 1583.41 1157.82 1566.25 1188.81 C 1570.2 1188.05 1573.65 1188.06 1577.6 1188.81 C 1608.3 1189.13 1683.25 1176.96 1683.13 1217.1 C 1683.09 1231.1 1668.39 1242.83 1659.88 1252.64 L 1617.95 1300.23 C 1598.01 1323.04 1579.6 1347.51 1559.11 1369.75 C 1564.05 1369.35 1568.4 1367.94 1573.1 1366.48 C 1577.35 1411.81 1579.2 1569.87 1570.58 1609.74 C 1553.42 1689.08 1463.78 1713.63 1394.42 1698.94 C 1392.09 1694.25 1389.9 1690.95 1386.27 1687.14 L 1386.23 1750.25 C 1386.21 1773.77 1389.1 1797.61 1360.77 1803.9 C 1345.09 1807.37 1302.03 1804.97 1283.79 1804.97 C 1182.38 1805.23 1186.95 1815.66 1187.05 1706.6 C 1186.01 1703.52 1185.86 1700.05 1185.51 1696.83 C 1152.56 1702.86 1117.56 1699.22 1084.26 1698.99 L 882.186 1698.98 C 862.137 1699.02 840.661 1700.6 821.011 1696.22 C 735.129 1677.07 744.079 1593.39 744.053 1527.58 L 744.101 1417.78 C 739.088 1418.19 734.446 1418.57 729.433 1417.78 z"/>
<path transform="translate(0,0)" fill="rgb(136,196,252)" d="M 729.433 1417.78 L 549.623 1417.75 C 483.727 1417.76 377.166 1431.83 367.604 1337.07 C 365.477 1315.99 366.076 1294.36 366.073 1273.2 L 366.104 393.655 C 365.921 241.848 388.186 230.941 533.806 231.053 L 989.437 230.979 C 1003.17 230.888 1017.16 230.056 1030.84 231.032 C 1048.57 245.357 1063.75 264.499 1079.54 280.923 L 1235.8 439.162 C 1244.05 447.559 1253.18 455.827 1260.48 465.071 C 1262.97 477.182 1260.62 493.175 1260.53 505.753 L 1260.48 597.019 L 876.45 597.016 C 859.625 597.026 842.562 596.421 825.776 597.245 C 813.797 597.833 801.712 604.617 791.332 605.187 C 757.741 631.177 742.163 653.125 742.904 695.431 L 742.955 820.981 C 742.963 841.214 744.041 862.081 742.904 882.239 C 742.498 891.557 742.466 900.698 742.904 910.015 C 742.938 973.087 743.601 1036.23 742.904 1099.29 L 742.904 1115.95 L 742.904 1417.78 L 729.433 1417.78 z"/>
<path transform="translate(0,0)" fill="rgb(67,157,251)" d="M 1030.84 231.032 C 1048.57 245.357 1063.75 264.499 1079.54 280.923 L 1235.8 439.162 C 1244.05 447.559 1253.18 455.827 1260.48 465.071 C 1214.73 464.615 1168.94 465.05 1123.19 465.092 C 1029.89 465.177 1030.54 468.033 1030.78 382.267 L 1030.85 282.852 C 1030.87 266.072 1031.83 248.911 1030.91 232.174 L 1030.84 231.032 z"/>
<path transform="translate(0,0)" fill="rgb(67,157,251)" d="M 535.983 605.187 L 734.708 605.263 C 747.831 605.279 780.464 602.54 791.332 605.187 C 757.741 631.177 742.163 653.125 742.904 695.431 L 535.983 695.431 L 535.983 605.187 z"/>
<path transform="translate(0,0)" fill="rgb(67,157,251)" d="M 535.983 815.867 L 742.904 815.867 C 742.979 837.469 740.771 860.842 742.904 882.239 C 742.498 891.557 742.466 900.698 742.904 910.015 L 535.983 910.015 L 535.983 815.867 z"/>
<path transform="translate(0,0)" fill="rgb(67,157,251)" d="M 535.983 1025.13 L 742.904 1025.13 C 741.865 1045.17 741.085 1079.88 742.904 1099.29 L 742.904 1115.95 L 535.983 1115.95 L 535.983 1025.13 z"/>
<path transform="translate(0,0)" fill="rgb(0,117,249)" d="M 1283.79 1188.81 L 1577.6 1188.81 C 1608.3 1189.13 1683.25 1176.96 1683.13 1217.1 C 1683.09 1231.1 1668.39 1242.83 1659.88 1252.64 L 1617.95 1300.23 C 1598.01 1323.04 1579.6 1347.51 1559.11 1369.75 C 1564.05 1369.35 1568.4 1367.94 1573.1 1366.48 C 1577.35 1411.81 1579.2 1569.87 1570.58 1609.74 C 1553.42 1689.08 1463.78 1713.63 1394.42 1698.94 C 1392.09 1694.25 1389.9 1690.95 1386.27 1687.14 L 1386.23 1750.25 C 1386.21 1773.77 1389.1 1797.61 1360.77 1803.9 C 1345.09 1807.37 1302.03 1804.97 1283.79 1804.97 C 1282.45 1783.34 1283.7 1760.95 1283.74 1739.25 L 1283.79 1188.81 z"/>
<path transform="translate(0,0)" fill="rgb(231,240,247)" d="M 1573.1 1366.48 C 1577.35 1411.81 1579.2 1569.87 1570.58 1609.74 C 1553.42 1689.08 1463.78 1713.63 1394.42 1698.94 C 1392.09 1694.25 1389.9 1690.95 1386.27 1687.14 L 1386.27 1567.6 C 1394.54 1553.55 1406.38 1541.94 1417.22 1529.87 L 1521.44 1412.33 C 1533.91 1398.1 1546.08 1383.46 1559.11 1369.75 C 1564.05 1369.35 1568.4 1367.94 1573.1 1366.48 z"/>
<path transform="translate(0,0)" fill="rgb(67,157,251)" d="M 1187.05 1706.6 C 1187.04 1688.55 1188.95 1574.49 1186.39 1566.85 C 1182.4 1554.95 1145.09 1515.92 1134.8 1503.9 L 928.57 1264.1 C 913.496 1246.8 878.267 1219.63 901.719 1195.7 C 913.258 1183.92 945.166 1188.75 960.01 1188.75 L 1283.79 1188.81 L 1283.74 1739.25 C 1283.7 1760.95 1282.45 1783.34 1283.79 1804.97 C 1182.38 1805.23 1186.95 1815.66 1187.05 1706.6 z"/>
<path transform="translate(0,0)" fill="rgb(221,221,221)" d="M 1336.99 611.073 C 1366.88 636.296 1395.94 668.63 1423.79 696.553 L 1506.66 780.648 C 1529.07 803.025 1551.33 825.112 1573.1 848.061 C 1554.89 846.59 1536.36 847.978 1518.09 848.03 L 1410.52 848.118 C 1318.13 848.134 1337.07 811.413 1337.04 736.104 C 1337.02 694.508 1335.71 652.622 1336.99 611.073 z"/>
</svg>