<svg xmlns="http://www.w3.org/2000/svg" version="1.1" style="display: block; width: 100%; height: 100%; overflow: visible;" viewBox="-40.96 -40.96 2129.92 2129.92" data-aspect-ratio="1.00" data-viewbox="0 0 2048 2048" preserveAspectRatio="xMidYMid meet">
<path transform="translate(0,0)" fill="rgb(59,131,214)" d="M 504.128 1007.05 L 504.096 412.502 C 504.081 337.841 493.419 289.858 584.846 290.157 L 1342.35 290.236 C 1391.08 334.015 1437.69 384.725 1484.66 430.882 L 1576.55 522.047 C 1594.4 539.781 1613.57 556.955 1630 576.008 L 1630.02 1660.65 C 1630.02 1721.91 1621.75 1758.25 1550.68 1757.79 L 588.346 1757.71 C 492.757 1757.8 504.042 1711.84 504.099 1637.37 L 504.128 1509.22 C 459.125 1509.65 422.321 1515.22 421.036 1458.95 L 420.979 1088.19 C 420.964 1010.37 418.022 1007.18 504.128 1007.05 z M 549.996 1458.95 L 550.01 1624.87 C 550 1642.51 542.537 1703.91 558.532 1710.38 C 567.853 1714.15 739.246 1712.08 765.112 1712.08 L 1541.97 1712 C 1594.7 1712.45 1584.35 1706 1584.33 1656.17 L 1584.32 602.082 C 1499.06 605.742 1398.56 603.77 1312.99 602.082 L 1312.99 335.81 C 1300.99 336.52 1289.02 336.018 1277.01 335.918 L 644.156 335.78 C 618.262 335.74 589.04 333.814 563.513 336.183 C 541.078 338.266 549.959 413.454 549.956 431.24 L 549.996 1007.05 C 572.568 1007.65 595.252 1007.07 617.837 1007.06 L 1317.21 1007.07 C 1411.11 1007.05 1431.6 988.96 1431.3 1099.67 L 1431.36 1341.39 C 1431.39 1378.54 1444.84 1452.63 1391.28 1457.96 C 1360.25 1461.05 1327.42 1458.98 1296.16 1458.97 L 549.996 1458.95 z M 881.111 1272.73 C 861.433 1272.77 842.004 1273.45 822.387 1274.95 C 829.537 1333.03 867.209 1362.01 925.563 1360.06 C 997.656 1372 1075.28 1307.79 1029.43 1244.28 C 992.094 1192.55 885.568 1210.76 893.311 1167.43 C 898.839 1136.51 964.274 1139.28 973.98 1179.01 L 1026.79 1179.01 C 1023.18 1155.92 1015.71 1135.74 996.186 1121.45 C 978.683 1108.63 937.089 1093.88 915.733 1103.03 C 845.071 1104.71 804.26 1180.65 851.056 1222.83 C 885.409 1253.79 977.704 1247.72 979.336 1282.82 C 981.315 1325.41 897.982 1336.91 881.111 1272.73 z M 675.604 1103.03 C 556.398 1118.91 544.041 1282.4 620.134 1339.05 C 662.339 1370.46 748.164 1370.25 781.751 1324.76 C 792.55 1310.13 796.469 1292.58 799.283 1274.95 L 746.75 1274.95 L 744.456 1275.47 C 735.5 1291.89 728.767 1303.13 709.211 1308.8 C 634.531 1330.44 617.5 1224.67 645.433 1177.08 C 668.86 1137.16 721 1143.47 743.092 1186.67 L 799.283 1186.67 C 787.46 1124.29 736.378 1097.73 675.604 1103.03 z M 1283 1158.5 C 1289.73 1140.84 1295.91 1123.12 1301.98 1105.23 L 1237.54 1105.23 C 1218.14 1167.8 1194.43 1229.16 1173.42 1291.2 C 1154.71 1234.26 1129.93 1159.98 1105.26 1105.23 C 1083.55 1105.21 1061.65 1104.62 1039.95 1105.23 C 1047.84 1134.11 1065 1171.5 1076.11 1200.17 L 1136.91 1360.06 C 1159.89 1360.06 1182.94 1359.67 1205.91 1360.06 L 1283 1158.5 z"/>
<path transform="translate(0,0)" fill="rgb(0,0,0)" d="M 504.128 1007.05 L 504.096 412.502 C 504.081 337.841 493.419 289.858 584.846 290.157 L 1342.35 290.236 C 1391.08 334.015 1437.69 384.725 1484.66 430.882 L 1576.55 522.047 C 1594.4 539.781 1613.57 556.955 1630 576.008 L 1630.02 1660.65 C 1630.02 1721.91 1621.75 1758.25 1550.68 1757.79 L 588.346 1757.71 C 492.757 1757.8 504.042 1711.84 504.099 1637.37 L 504.128 1509.22 L 504.128 1458.95 C 519.26 1458.84 534.902 1457.96 549.996 1458.95 L 550.01 1624.87 C 550 1642.51 542.537 1703.91 558.532 1710.38 C 567.853 1714.15 739.246 1712.08 765.112 1712.08 L 1541.97 1712 C 1594.7 1712.45 1584.35 1706 1584.33 1656.17 L 1584.32 602.082 C 1499.06 605.742 1398.56 603.77 1312.99 602.082 L 1312.99 335.81 C 1300.99 336.52 1289.02 336.018 1277.01 335.918 L 644.156 335.78 C 618.262 335.74 589.04 333.814 563.513 336.183 C 541.078 338.266 549.959 413.454 549.956 431.24 L 549.996 1007.05 C 534.847 1008.2 519.243 1008.58 504.128 1007.05 z"/>
<path transform="translate(0,0)" fill="rgb(155,154,154)" d="M 1357.2 369.68 C 1376.65 384.66 1540.94 548.749 1541.59 555.973 L 1357.2 555.973 L 1357.12 428.619 C 1357.14 409.341 1359.08 388.79 1357.2 369.68 z"/>
<path transform="translate(0,0)" fill="rgb(30,90,169)" d="M 421.036 1458.95 C 448.223 1460.03 477.023 1460.37 504.128 1458.95 L 504.128 1509.22 C 459.125 1509.65 422.321 1515.22 421.036 1458.95 z"/>
</svg>