<svg preserveAspectRatio="xMidYMid meet" version="1.1" xmlns="http://www.w3.org/2000/svg" style="display: block;" viewBox="0 0 2048 2048" width="512" height="512">
<path transform="translate(0,0)" fill="rgb(30,143,251)" d="M 663.697 288.027 L 704.006 288.027 C 704.803 298.296 704.144 308.989 704.1 319.306 L 704.006 564.33 C 704.004 641.679 697.531 734.157 804.29 734.948 L 1185.13 734.985 C 1202.82 734.978 1222.38 736.539 1239.71 733.054 C 1305.71 719.786 1311.01 669.413 1311 616.329 L 1310.97 288.027 C 1381.99 299.754 1405.13 337.677 1452.48 384.419 L 1650.77 581.622 C 1708.38 639.247 1694.91 688.771 1694.9 765.6 L 1694.88 1620.53 C 1684.91 1716.08 1617.03 1753.61 1530.77 1753.51 L 500.445 1753.57 C 398.468 1754 353.456 1688.58 353.189 1591.69 L 353.156 460.423 C 353.153 384.501 369.154 317.791 455.493 294.839 C 489.432 285.817 531.075 288.001 566.354 287.991 L 663.697 288.027 z M 639.713 1277.5 L 639.676 1591.21 C 639.643 1683.18 668.092 1664.06 746.775 1664.02 L 1342.44 1664.01 C 1421.3 1663.69 1408.3 1631.96 1408.31 1568.7 L 1408.31 1298.15 C 1408.3 1261.2 1424.4 1172.68 1370.89 1176.06 C 1336.4 1186.11 1344.92 1224.58 1344.92 1252.51 L 1344.95 1600.1 L 704.006 1600.1 C 703.337 1568.85 704.003 1537.49 704.019 1506.22 L 704.013 1248.25 C 703.996 1234 704.757 1218.69 702.897 1204.59 C 698.263 1169.48 647.851 1168.57 640.781 1202.65 C 637.701 1217.5 639.713 1259.86 639.713 1277.5 z M 993.485 1419.29 C 984.084 1408.19 973.481 1398.32 963.265 1387.99 L 912.153 1336.46 C 884.283 1308.62 857.063 1278.7 827.382 1252.82 C 813.648 1267.95 796.721 1281.71 784.775 1298.12 L 955.568 1469.76 C 971.866 1485.82 995.606 1512.89 1012.34 1526.28 C 1023.19 1534.97 1035.25 1526.72 1043.62 1518.98 L 1158.2 1404.2 C 1193.55 1368.49 1228.54 1332.19 1265.5 1298.12 C 1253.22 1281.65 1236.99 1267.59 1222.74 1252.82 C 1171.97 1299.22 1099.42 1367.12 1054.63 1419.29 C 1053.96 1375.26 1054.63 1331.13 1054.64 1287.09 L 1054.63 1023.81 L 993.485 1023.81 L 993.485 1419.29 z"/>
<path transform="translate(0,0)" fill="rgb(30,143,251)" d="M 767.413 288.027 L 1249.2 288.027 L 1249.28 612.645 C 1249.3 631.345 1253.97 650.865 1240.44 665.588 C 1225.11 678.562 1156.51 672.404 1134.73 672.405 L 850.875 672.497 C 775.931 672.498 767.368 684.89 767.373 601.139 L 767.413 288.027 z"/>
</svg>